<svg width="25" height="25" viewBox="0 0 25 25" fill="none" xmlns="http://www.w3.org/2000/svg">
<g clip-path="url(#clip0_2249_37)">
<path d="M8.33337 7.96155C7.78109 7.96155 7.33337 8.40926 7.33337 8.96155C7.33337 9.51383 7.78109 9.96155 8.33337 9.96155H16.3334C16.8857 9.96155 17.3334 9.51383 17.3334 8.96155C17.3334 8.40926 16.8857 7.96155 16.3334 7.96155H8.33337Z" fill="#6C7278"/>
<path d="M8.33337 11.9615C7.78109 11.9615 7.33337 12.4093 7.33337 12.9615C7.33337 13.5138 7.78109 13.9615 8.33337 13.9615H16.3334C16.8857 13.9615 17.3334 13.5138 17.3334 12.9615C17.3334 12.4093 16.8857 11.9615 16.3334 11.9615H8.33337Z" fill="#6C7278"/>
<path d="M8.33337 15.9615C7.78109 15.9615 7.33337 16.4093 7.33337 16.9615C7.33337 17.5138 7.78109 17.9615 8.33337 17.9615H12.3334C12.8857 17.9615 13.3334 17.5138 13.3334 16.9615C13.3334 16.4093 12.8857 15.9615 12.3334 15.9615H8.33337Z" fill="#6C7278"/>
<path fill-rule="evenodd" clip-rule="evenodd" d="M6.33337 3.96155H9.33337C9.33337 2.30469 10.6765 0.961548 12.3334 0.961548C13.9902 0.961548 15.3334 2.30469 15.3334 3.96155H18.3334C19.9902 3.96155 21.3334 5.30469 21.3334 6.96155V20.9615C21.3334 22.6184 19.9902 23.9615 18.3334 23.9615H6.33337C4.67652 23.9615 3.33337 22.6184 3.33337 20.9615V6.96155C3.33337 5.30469 4.67652 3.96155 6.33337 3.96155ZM12.3334 2.96155C11.7811 2.96155 11.3334 3.40926 11.3334 3.96155H13.3334C13.3334 3.40926 12.8857 2.96155 12.3334 2.96155ZM6.33337 5.96155C5.78109 5.96155 5.33337 6.40926 5.33337 6.96155V20.9615C5.33337 21.5138 5.78109 21.9615 6.33337 21.9615H18.3334C18.8857 21.9615 19.3334 21.5138 19.3334 20.9615V6.96155C19.3334 6.40926 18.8857 5.96155 18.3334 5.96155H6.33337Z" fill="#6C7278"/>
</g>
<defs>
<clipPath id="clip0_2249_37">
<rect width="24" height="24" fill="white" transform="translate(0.333374 0.961548)"/>
</clipPath>
</defs>
</svg>
