<svg width="24" height="25" viewBox="0 0 24 25" fill="none" xmlns="http://www.w3.org/2000/svg">
<g clip-path="url(#clip0_2249_527)">
<path fill-rule="evenodd" clip-rule="evenodd" d="M16.8396 14.076C16.8396 16.8375 14.601 19.076 11.8396 19.076C9.0782 19.076 6.83962 16.8375 6.83962 14.076C6.83962 11.3146 9.0782 9.07605 11.8396 9.07605C14.601 9.07605 16.8396 11.3146 16.8396 14.076ZM14.8396 14.076C14.8396 15.7329 13.4965 17.076 11.8396 17.076C10.1828 17.076 8.83962 15.7329 8.83962 14.076C8.83962 12.4192 10.1828 11.076 11.8396 11.076C13.4965 11.076 14.8396 12.4192 14.8396 14.076Z" fill="#6C7278"/>
<path fill-rule="evenodd" clip-rule="evenodd" d="M13.4746 2.44609C12.4804 1.79987 11.1989 1.79987 10.2047 2.4461L2.36512 7.5418C1.3859 8.17829 0.865068 9.32522 1.03023 10.4814L2.60437 21.5003C2.8155 22.9783 4.08126 24.0761 5.57421 24.0761H18.105C19.598 24.0761 20.8637 22.9783 21.0749 21.5003L22.649 10.4814C22.8142 9.32522 22.2934 8.17829 21.3141 7.5418L13.4746 2.44609ZM11.2946 4.12298C11.626 3.90757 12.0532 3.90757 12.3846 4.12298L20.2242 9.21868C20.5506 9.43085 20.7242 9.81316 20.6691 10.1985L19.095 21.2175C19.0246 21.7101 18.6027 22.0761 18.105 22.0761H5.57421C5.07656 22.0761 4.65464 21.7101 4.58427 21.2175L3.01013 10.1985C2.95508 9.81316 3.12869 9.43085 3.4551 9.21868L11.2946 4.12298Z" fill="#6C7278"/>
</g>
<defs>
<clipPath id="clip0_2249_527">
<rect width="24" height="24" fill="white" transform="translate(0 0.961426)"/>
</clipPath>
</defs>
</svg>
