<svg width="25" height="24" viewBox="0 0 25 24" fill="none" xmlns="http://www.w3.org/2000/svg">
<path fill-rule="evenodd" clip-rule="evenodd" d="M21.6667 7.15351C21.6667 10.3398 18.9804 12.9227 15.6667 12.9227C12.353 12.9227 9.66669 10.3398 9.66669 7.15351C9.66669 3.96725 12.353 1.38428 15.6667 1.38428C18.9804 1.38428 21.6667 3.96725 21.6667 7.15351ZM19.6667 7.15351C19.6667 9.27768 17.8758 10.9997 15.6667 10.9997C13.4575 10.9997 11.6667 9.27768 11.6667 7.15351C11.6667 5.02934 13.4575 3.30735 15.6667 3.30735C17.8758 3.30735 19.6667 5.02934 19.6667 7.15351Z" fill="#6C7278"/>
<path d="M8.86562 3.3841C9.40687 3.27846 9.75657 2.77093 9.6467 2.2505C9.53683 1.73007 9.009 1.39382 8.46775 1.49946C5.72865 2.03409 3.66669 4.36108 3.66669 7.1533C3.66669 9.94553 5.72865 12.2725 8.46775 12.8071C9.009 12.9128 9.53683 12.5765 9.6467 12.0561C9.75657 11.5357 9.40687 11.0281 8.86562 10.9225C7.04025 10.5662 5.66669 9.01292 5.66669 7.1533C5.66669 5.29368 7.04025 3.74038 8.86562 3.3841Z" fill="#6C7278"/>
<path fill-rule="evenodd" clip-rule="evenodd" d="M10.3646 15.3973C11.5974 14.4874 13.3157 13.8843 15.6667 13.8843C18.0177 13.8843 19.736 14.4874 20.9689 15.3973C22.1925 16.3005 22.8582 17.4468 23.2192 18.4118C23.5369 19.2612 23.3143 20.0926 22.7815 20.6818C22.2669 21.2509 21.4878 21.5766 20.6667 21.5766H10.6667C9.84558 21.5766 9.06648 21.2509 8.55189 20.6818C8.01905 20.0926 7.79645 19.2612 8.11422 18.4118C8.47525 17.4467 9.14095 16.3004 10.3646 15.3973ZM11.5824 16.9228C10.7402 17.5443 10.2651 18.3437 9.99616 19.0627C9.94003 19.2127 9.97091 19.3202 10.0612 19.42C10.1697 19.54 10.3833 19.6535 10.6667 19.6535H20.6667C20.9501 19.6535 21.1637 19.54 21.2722 19.42C21.3625 19.3202 21.3934 19.2127 21.3372 19.0627C21.0683 18.3438 20.5932 17.5443 19.7511 16.9228C18.9181 16.308 17.6457 15.8074 15.6667 15.8074C13.6878 15.8074 12.4153 16.308 11.5824 16.9228Z" fill="#6C7278"/>
<path d="M3.91761 18.9582C4.12232 18.2003 4.47366 17.4034 5.05349 16.8078C5.60457 16.2417 6.4072 15.8074 7.66669 15.8074C8.21897 15.8074 8.66669 15.3769 8.66669 14.8458C8.66669 14.3148 8.21897 13.8843 7.66669 13.8843C5.84602 13.8843 4.51722 14.5446 3.59339 15.4935C2.6983 16.413 2.23124 17.5514 1.98183 18.4748C1.49863 20.2638 3.08118 21.5766 4.66666 21.5766H5.43588C5.98816 21.5766 6.43588 21.1461 6.43588 20.615C6.43588 20.084 5.98816 19.6535 5.43588 19.6535H4.66666C4.38413 19.6535 4.15914 19.5418 4.03122 19.406C3.91537 19.2829 3.86929 19.1371 3.91761 18.9582Z" fill="#6C7278"/>
</svg>
