<svg width="24" height="25" viewBox="0 0 24 25" fill="none" xmlns="http://www.w3.org/2000/svg">
<g clip-path="url(#clip0_2249_42)">
<path fill-rule="evenodd" clip-rule="evenodd" d="M12 7.96155C9.23858 7.96155 7 10.2001 7 12.9615C7 15.723 9.23858 17.9615 12 17.9615C14.7614 17.9615 17 15.723 17 12.9615C17 10.2001 14.7614 7.96155 12 7.96155ZM9 12.9615C9 11.3047 10.3431 9.96155 12 9.96155C13.6569 9.96155 15 11.3047 15 12.9615C15 14.6184 13.6569 15.9615 12 15.9615C10.3431 15.9615 9 14.6184 9 12.9615Z" fill="#6C7278"/>
<path fill-rule="evenodd" clip-rule="evenodd" d="M11.9998 0.961548C10.343 0.961548 8.99982 2.30469 8.99982 3.96155V4.47395C7.94579 4.8465 6.98255 5.40941 6.15122 6.12075L5.70552 5.86343C4.27065 5.035 2.43588 5.52663 1.60745 6.96151C0.779021 8.39638 1.27065 10.2312 2.70552 11.0596L3.15005 11.3162C3.05133 11.8502 2.99982 12.4002 2.99982 12.9615C2.99982 13.5272 3.05213 14.0814 3.15235 14.6193L2.70171 14.8735C1.25595 15.6892 0.753514 17.5278 1.58351 18.9654C2.41087 20.3985 4.24613 20.8849 5.67467 20.0498L6.12968 19.7839C6.96478 20.503 7.93406 21.0718 8.99553 21.4476L8.99126 21.9353C8.97666 23.6023 10.324 24.9615 11.9911 24.9615C13.6376 24.9615 14.9765 23.6344 14.9909 21.9879L14.9956 21.4506C16.0505 21.0784 17.0146 20.5154 17.8466 19.8039L18.2608 20.0454C19.6965 20.8828 21.5393 20.3933 22.3703 18.954C23.1961 17.5236 22.7104 15.6947 21.2836 14.8626L20.8492 14.6092C20.9482 14.0744 20.9998 13.5237 20.9998 12.9615C20.9998 12.3995 20.9482 11.8487 20.8492 11.314L21.2837 11.0606C22.7104 10.2284 23.1961 8.39955 22.3703 6.96916C21.5393 5.52981 19.6964 5.04038 18.2608 5.87775L17.8467 6.11927C17.0157 5.40863 16.0531 4.84624 14.9998 4.47395V3.96155C14.9998 2.30469 13.6567 0.961548 11.9998 0.961548ZM10.9998 3.96155C10.9998 3.40926 11.4475 2.96155 11.9998 2.96155C12.5521 2.96155 12.9998 3.40926 12.9998 3.96155V5.21358C12.9998 5.66987 13.3087 6.06829 13.7506 6.18202C15.0006 6.50377 16.1171 7.1631 16.9962 8.05889C17.3184 8.3872 17.823 8.45336 18.219 8.21922L18.4319 8.0933L18.437 8.09025L19.2684 7.60537C19.747 7.32625 20.3612 7.48939 20.6382 7.96916C20.9135 8.44595 20.7516 9.05556 20.276 9.33294L19.439 9.82113L19.2339 9.93151C18.8224 10.153 18.6191 10.63 18.7444 11.0802C18.9106 11.6777 18.9998 12.3084 18.9998 12.9615C18.9998 13.6136 18.9109 14.2434 18.7452 14.84C18.6215 15.2852 18.819 15.7572 19.2229 15.9817L19.4332 16.0986L20.276 16.5902C20.7516 16.8676 20.9135 17.4772 20.6382 17.954C20.3612 18.4338 19.747 18.5969 19.2684 18.3178L18.4319 17.8299C18.4233 17.8249 18.4147 17.8201 18.4061 17.8154L18.1813 17.693C17.7893 17.4797 17.3034 17.5519 16.9904 17.8701C16.1122 18.7629 14.9979 19.42 13.7506 19.7411C13.3087 19.8548 12.9998 20.2532 12.9998 20.7095V20.9572L12.991 21.9703C12.9861 22.5191 12.5399 22.9615 11.9911 22.9615C11.4354 22.9615 10.9863 22.5085 10.9912 21.9528L10.9998 20.9703V20.7095C10.9998 20.2532 10.691 19.8548 10.2491 19.7411C8.99055 19.4172 7.86744 18.7511 6.98564 17.846C6.66501 17.5169 6.16138 17.4487 5.76473 17.6805L4.66534 18.3232C4.19403 18.5987 3.58853 18.4382 3.31556 17.9654C3.04173 17.4911 3.20749 16.8845 3.68448 16.6154L4.78653 15.9936C5.18755 15.7674 5.38224 15.2965 5.25813 14.8531C5.09003 14.2526 4.99982 13.6184 4.99982 12.9615C4.99982 12.3114 5.0882 11.6834 5.25301 11.0884C5.3739 10.6518 5.1863 10.1886 4.79575 9.95919L4.57803 9.83128L3.70552 9.32753C3.22723 9.05139 3.06336 8.4398 3.3395 7.96151C3.61564 7.48321 4.22723 7.31934 4.70552 7.59548L5.55515 8.08602L5.75229 8.21001C6.15062 8.46057 6.66975 8.3995 6.99906 8.06334C7.87883 7.16528 8.99693 6.5043 10.2491 6.18202C10.691 6.06829 10.9998 5.66987 10.9998 5.21358V3.96155Z" fill="#6C7278"/>
</g>
<defs>
<clipPath id="clip0_2249_42">
<rect width="24" height="24" fill="white" transform="translate(0 0.961548)"/>
</clipPath>
</defs>
</svg>
